<svg width="32" height="32" viewBox="0 0 32 32" fill="none" xmlns="http://www.w3.org/2000/svg">
<path opacity="0.6" d="M20 2.66667H18.6666C14.8954 2.66667 13.0098 2.66667 11.8382 3.83824C10.6666 5.00981 10.6666 6.89543 10.6666 10.6667V21.3333C10.6666 25.1046 10.6666 26.9902 11.8382 28.1618C13.0098 29.3333 14.8954 29.3333 18.6666 29.3333H20C23.7712 29.3333 25.6568 29.3333 26.8284 28.1618C28 26.9902 28 25.1046 28 21.3333V10.6667C28 6.89543 28 5.00981 26.8284 3.83824C25.6568 2.66667 23.7712 2.66667 20 2.66667Z" fill="#2C6BF1"/>
<path opacity="0.4" d="M10.6667 10.6667C10.6667 8.61666 10.6667 7.12383 10.8549 6H10.6667C7.52397 6 5.95262 6 4.97631 6.97631C4 7.95262 4 9.52397 4 12.6667V19.3333C4 22.476 4 24.0474 4.97631 25.0237C5.95262 26 7.52397 26 10.6667 26H10.8549C10.6667 24.8762 10.6667 23.3833 10.6667 21.3333V17V15V10.6667Z" fill="#2C6BF1"/>
<path fill-rule="evenodd" clip-rule="evenodd" d="M19.3737 15.2929C19.7643 15.6834 19.7643 16.3166 19.3737 16.7071L16.7071 19.3738C16.3165 19.7643 15.6834 19.7643 15.2929 19.3738C14.9023 18.9833 14.9023 18.3501 15.2929 17.9596L16.2524 17L6.66663 17C6.11434 17 5.66663 16.5523 5.66663 16C5.66663 15.4477 6.11434 15 6.66663 15L16.2524 15L15.2929 14.0404C14.9023 13.6499 14.9023 13.0168 15.2929 12.6262C15.6834 12.2357 16.3165 12.2357 16.7071 12.6262L19.3737 15.2929Z" fill="#2C6BF1"/>
</svg>
