<svg width="159" height="39" viewBox="0 0 159 39" fill="none" xmlns="http://www.w3.org/2000/svg">
<path d="M18.016 8.6H23.2V31H18.016V8.6ZM7.84 31H2.656V8.6H7.84V31ZM18.4 21.816H7.456V17.432H18.4V21.816Z" fill="#2C6BF1"/>
<path d="M31.3784 15.9533C31.3784 15.9533 31.4278 16.3512 31.3784 16.5981C31.2387 17.2966 30.4818 17.2939 30.0887 17.8879C29.7358 18.4209 29.4438 19.3925 29.4438 19.3925L29.6588 30.5701L30.0887 31H32.6681L33.098 30.5701V29.4953H53.7335V30.5701L54.1634 31H56.5279L57.1728 30.5701V19.3925C57.1728 19.3925 56.8338 18.4492 56.5279 17.8879C56.2383 17.3563 55.7704 17.1948 55.6681 16.5981C55.6256 16.3499 55.6681 15.9533 55.6681 15.9533C55.6681 15.9533 56.5023 16.1682 56.9578 15.9533C57.5699 15.6644 57.9431 15.1137 57.8176 14.4486C57.6838 13.739 57.0351 13.3738 56.313 13.3738C55.5909 13.3738 55.0787 13.779 54.8083 14.4486C54.6197 14.9156 54.8083 15.7383 54.8083 15.7383L52.4438 10.5794C52.4438 10.5794 52.0956 9.51506 51.799 9.07477C51.1892 8.16976 49.2195 8 49.2195 8H37.1821C37.1821 8 34.9855 8.5711 34.8176 9.07477C34.6498 9.57843 34.3407 10.0758 34.1728 10.5794L32.0232 15.7383C32.0232 15.7383 32.2085 14.9169 32.0232 14.4486C31.7821 13.8389 31.3831 13.4628 30.7335 13.3738C29.9489 13.2664 29.1299 13.6652 29.0139 14.4486C28.9082 15.1629 29.4191 15.6829 30.0887 15.9533C30.5557 16.1419 31.3784 15.9533 31.3784 15.9533Z" fill="#2C6BF1"/>
<path d="M43.8318 15.0936C39.7151 15.0865 33.2991 15.5236 33.2991 15.5236L35.6636 9.93478C35.6636 9.93478 40.1053 9.71438 43.8318 9.71983C47.4411 9.7251 51.5701 9.93478 51.5701 9.93478L53.9346 15.5236C53.9346 15.5236 47.7807 15.1005 43.8318 15.0936Z" fill="white"/>
<path d="M48.7757 20.0376H38.028C38.028 20.0376 37.0565 20.3295 36.5234 20.6823C35.9294 21.0755 35.2337 21.9721 35.2337 21.9721C35.2337 21.9721 34.9812 22.3541 35.0187 22.6169C35.0781 23.0324 35.8785 23.2618 35.8785 23.2618H51.3551C51.3551 23.2618 52.1556 23.0324 52.215 22.6169C52.2525 22.3541 52 21.9721 52 21.9721C52 21.9721 51.3112 21.0647 50.7103 20.6823C50.0384 20.2548 48.7757 20.0376 48.7757 20.0376Z" fill="white"/>
<ellipse cx="32.6495" cy="19.8223" rx="1.5" ry="2" fill="white"/>
<ellipse cx="54.5841" cy="19.8223" rx="1.5" ry="2" fill="white"/>
<ellipse cx="33.0795" cy="26.0562" rx="1.5" ry="1" fill="white"/>
<ellipse cx="53.6542" cy="26.0562" rx="2" ry="1" fill="white"/>
<path d="M63.4979 31V8.6H73.1939C75.1992 8.6 76.9272 8.93067 78.3779 9.592C79.8285 10.232 80.9485 11.16 81.7379 12.376C82.5272 13.592 82.9219 15.0427 82.9219 16.728C82.9219 18.392 82.5272 19.832 81.7379 21.048C80.9485 22.264 79.8285 23.2027 78.3779 23.864C76.9272 24.504 75.1992 24.824 73.1939 24.824H66.3779L68.6819 22.488V31H63.4979ZM68.6819 23.064L66.3779 20.6H72.9059C74.5059 20.6 75.7005 20.2587 76.4899 19.576C77.2792 18.8933 77.6739 17.944 77.6739 16.728C77.6739 15.4907 77.2792 14.5307 76.4899 13.848C75.7005 13.1653 74.5059 12.824 72.9059 12.824H66.3779L68.6819 10.36V23.064Z" fill="#2C6BF1"/>
<path d="M102.129 30V12.96H95.4091V9H113.709V12.96H106.989V30H102.129ZM125.074 30V26.85L124.774 26.16V20.52C124.774 19.52 124.464 18.74 123.844 18.18C123.244 17.62 122.314 17.34 121.054 17.34C120.194 17.34 119.344 17.48 118.504 17.76C117.684 18.02 116.984 18.38 116.404 18.84L114.724 15.57C115.604 14.95 116.664 14.47 117.904 14.13C119.144 13.79 120.404 13.62 121.684 13.62C124.144 13.62 126.054 14.2 127.414 15.36C128.774 16.52 129.454 18.33 129.454 20.79V30H125.074ZM120.154 30.24C118.894 30.24 117.814 30.03 116.914 29.61C116.014 29.17 115.324 28.58 114.844 27.84C114.364 27.1 114.124 26.27 114.124 25.35C114.124 24.39 114.354 23.55 114.814 22.83C115.294 22.11 116.044 21.55 117.064 21.15C118.084 20.73 119.414 20.52 121.054 20.52H125.344V23.25H121.564C120.464 23.25 119.704 23.43 119.284 23.79C118.884 24.15 118.684 24.6 118.684 25.14C118.684 25.74 118.914 26.22 119.374 26.58C119.854 26.92 120.504 27.09 121.324 27.09C122.104 27.09 122.804 26.91 123.424 26.55C124.044 26.17 124.494 25.62 124.774 24.9L125.494 27.06C125.154 28.1 124.534 28.89 123.634 29.43C122.734 29.97 121.574 30.24 120.154 30.24ZM131.649 30L138.879 20.52L138.789 23.1L131.859 13.86H137.109L141.489 19.89L139.509 19.95L144.039 13.86H149.019L142.059 23.01V20.49L149.259 30H143.949L139.359 23.58L141.309 23.85L136.749 30H131.649ZM151.531 30V13.86H156.211V30H151.531ZM153.871 11.61C153.011 11.61 152.311 11.36 151.771 10.86C151.231 10.36 150.961 9.74 150.961 9C150.961 8.26 151.231 7.64 151.771 7.14C152.311 6.64 153.011 6.39 153.871 6.39C154.731 6.39 155.431 6.63 155.971 7.11C156.511 7.57 156.781 8.17 156.781 8.91C156.781 9.69 156.511 10.34 155.971 10.86C155.451 11.36 154.751 11.61 153.871 11.61Z" fill="#2C6BF1"/>
</svg>
