<svg width="714" height="1294" viewBox="0 0 714 1294" fill="none" xmlns="http://www.w3.org/2000/svg">
<path opacity="0.0144928" d="M495.222 1085.74C486.535 1091.79 474.895 1091.36 466.679 1084.69L322.715 967.74C317.857 963.793 314.753 958.088 314.079 951.865L284.473 678.713C283.942 673.819 284.946 668.881 287.344 664.582L403.184 456.96C407.533 449.166 415.885 444.467 424.804 444.798L584.369 450.714C593.289 451.045 601.27 456.349 605.03 464.444L705.175 680.074C707.249 684.539 707.885 689.538 706.993 694.379L657.24 964.588C656.106 970.744 652.588 976.204 647.45 979.78L495.222 1085.74Z" stroke="#5A83ED" stroke-width="2.5"/>
<path opacity="0.0289855" d="M525.592 1080.86C517.245 1087.32 505.634 1087.5 497.094 1081.29L348.161 973.101C343.089 969.417 339.679 963.877 338.676 957.689L295.102 689.055C294.312 684.181 295.06 679.182 297.243 674.753L401.406 463.403C405.347 455.407 413.433 450.291 422.346 450.155L580.998 447.727C589.911 447.591 598.15 452.457 602.334 460.328L712.913 668.393C715.23 672.753 716.131 677.727 715.49 682.623L680.155 952.464C679.341 958.679 676.103 964.321 671.146 968.159L525.592 1080.86Z" stroke="#5A83ED" stroke-width="2.5"/>
<path opacity="0.0434783" d="M555.599 1075.08C547.612 1081.94 536.063 1082.72 527.224 1077L373.84 977.762C368.569 974.351 364.863 968.992 363.532 962.857L306.383 699.449C305.333 694.609 305.822 689.562 307.782 685.014L400.196 470.583C403.719 462.408 411.519 456.889 420.401 456.287L577.709 445.627C586.591 445.025 595.064 449.441 599.658 457.067L720.155 657.07C722.711 661.312 723.876 666.248 723.489 671.185L702.397 939.895C701.906 946.153 698.956 951.963 694.193 956.054L555.599 1075.08Z" stroke="#5A83ED" stroke-width="2.5"/>
<path opacity="0.057971" d="M585.196 1068.44C577.588 1075.68 566.132 1077.06 557.022 1071.84L399.713 981.717C394.257 978.592 390.263 973.43 388.607 967.365L318.309 709.86C317.001 705.067 317.229 699.985 318.96 695.329L399.589 478.46C402.687 470.127 410.181 464.223 419.007 463.158L574.547 444.4C583.373 443.336 592.056 447.29 597.046 454.647L726.921 646.129C729.709 650.24 731.139 655.123 731.007 660.089L723.944 926.923C723.777 933.209 721.124 939.172 716.568 943.505L585.196 1068.44Z" stroke="#5A83ED" stroke-width="2.5"/>
<path opacity="0.0724638" d="M614.34 1060.98C607.129 1068.57 595.798 1070.54 586.446 1065.84L425.742 984.962C420.117 982.132 415.846 977.183 413.869 971.204L330.882 720.25C329.318 715.519 329.281 710.415 330.778 705.662L399.622 486.997C402.288 478.529 409.455 472.255 418.202 470.732L571.56 444.031C580.307 442.509 589.172 445.991 594.544 453.06L733.238 635.591C736.253 639.559 737.944 644.374 738.07 649.356L744.781 913.59C744.94 919.885 742.594 925.986 738.256 930.551L614.34 1060.98Z" stroke="#5A83ED" stroke-width="2.5"/>
<path opacity="0.0869565" d="M642.994 1052.72C636.196 1060.64 625.021 1063.19 615.455 1059.01L451.89 987.496C446.111 984.969 441.574 980.248 439.28 974.373L344.097 730.588C342.279 725.931 341.976 720.818 343.233 715.979L400.324 496.152C402.553 487.571 409.376 480.946 418.019 478.97L568.795 444.502C577.438 442.527 586.462 445.529 592.198 452.29L739.132 625.476C742.367 629.289 744.316 634.025 744.701 639.009L764.894 899.937C765.381 906.225 763.347 912.449 759.24 917.236L642.994 1052.72Z" stroke="#5A83ED" stroke-width="2.5"/>
<path opacity="0.101449" d="M671.116 1043.69C664.746 1051.93 653.756 1055.05 644.006 1051.4L478.116 989.319C472.2 987.105 467.409 982.625 464.804 976.871L357.944 740.835C355.875 736.266 355.306 731.159 356.319 726.247L401.724 505.881C403.511 497.21 409.973 490.252 418.489 487.83L566.292 445.792C574.808 443.37 583.964 445.886 590.047 452.319L744.627 615.806C748.072 619.451 750.276 624.093 750.922 629.066L784.272 886.009C785.085 892.273 783.369 898.604 779.504 903.6L671.116 1043.69Z" stroke="#5A83ED" stroke-width="2.5"/>
<path opacity="0.115942" d="M698.666 1033.95C692.738 1042.47 681.964 1046.15 672.061 1043.04L504.379 990.434C498.343 988.54 493.312 984.317 490.401 978.699L372.413 750.961C370.098 746.493 369.262 741.405 370.026 736.431L403.847 516.142C405.189 507.404 411.273 500.134 419.638 497.274L564.093 447.882C572.458 445.021 581.721 447.044 588.131 453.132L749.746 606.598C753.394 610.063 755.849 614.597 756.754 619.547L802.901 871.85C804.039 878.073 802.648 884.493 799.035 889.686L698.666 1033.95Z" stroke="#5A83ED" stroke-width="2.5"/>
<path opacity="0.130435" d="M725.613 1023.51C720.14 1032.29 709.61 1036.52 699.582 1033.96L530.645 990.845C524.505 989.278 519.246 985.323 516.037 979.859L387.494 760.93C384.938 756.576 383.836 751.521 384.347 746.499L406.714 526.888C407.609 518.106 413.3 510.544 421.492 507.255L562.239 450.742C570.431 447.453 579.772 448.979 586.491 454.704L754.52 597.866C758.363 601.141 761.061 605.554 762.226 610.467L820.776 857.499C822.238 863.665 821.175 870.159 817.824 875.537L725.613 1023.51Z" stroke="#5A83ED" stroke-width="2.5"/>
<path opacity="0.144928" d="M751.924 1012.43C746.917 1021.45 736.659 1026.21 726.539 1024.2L556.872 990.561C550.646 989.327 545.174 985.652 541.676 980.356L403.174 770.713C400.381 766.486 399.014 761.477 399.271 756.418L410.346 538.076C410.793 529.273 416.079 521.441 424.075 517.733L560.767 454.351C568.764 450.643 578.157 451.669 585.164 457.016L758.973 589.629C763 592.701 765.941 596.981 767.362 601.843L837.893 843.005C839.674 849.096 838.944 855.647 835.864 861.196L751.924 1012.43Z" stroke="#5A83ED" stroke-width="2.5"/>
<path opacity="0.173913" d="M802.53 988.503C798.484 997.925 788.848 1003.69 778.634 1002.79L609.08 987.939C602.737 987.383 596.883 984.304 592.831 979.391L436.279 789.587C433.034 785.652 431.142 780.777 430.883 775.683L419.984 561.583C419.537 552.807 423.973 544.502 431.515 539.992L559.123 463.691C566.665 459.182 576.081 459.205 583.601 463.752L767.047 574.68C771.411 577.319 774.81 581.294 776.74 586.015L869.851 813.752C872.261 819.646 872.202 826.261 869.69 832.112L802.53 988.503Z" stroke="#5A83ED" stroke-width="2.5"/>
<path opacity="0.188406" d="M826.772 975.737C823.218 985.32 813.931 991.555 803.716 991.216L634.987 985.621C628.613 985.41 622.591 982.643 618.278 977.944L453.67 798.617C450.208 794.846 448.058 790.058 447.539 784.965L426.013 573.805C425.124 565.077 429.118 556.569 436.402 551.678L559.017 469.358C566.301 464.467 575.688 463.991 583.43 468.119L770.722 567.988C775.239 570.396 778.856 574.199 781.036 578.83L884.694 799.079C887.41 804.85 887.691 811.471 885.473 817.451L826.772 975.737Z" stroke="#5A83ED" stroke-width="2.5"/>
<path opacity="0.202899" d="M850.274 962.499C847.218 972.217 838.304 978.904 828.119 979.119L660.715 982.653C654.328 982.788 648.156 980.343 643.592 975.871L471.59 807.34C467.92 803.744 465.516 799.056 464.737 793.978L432.859 586.278C431.53 577.62 435.075 568.932 442.082 563.676L559.425 475.648C566.432 470.391 575.764 469.418 583.704 473.116L774.193 561.83C778.849 563.999 782.677 567.62 785.102 572.149L898.783 784.433C901.799 790.065 902.419 796.675 900.503 802.769L850.274 962.499Z" stroke="#5A83ED" stroke-width="2.5"/>
<path opacity="0.217391" d="M873.022 948.834C870.468 958.662 861.949 965.779 851.824 966.544L686.233 979.05C679.852 979.532 673.545 977.419 668.744 973.188L490.023 815.727C486.155 812.319 483.501 807.744 482.462 802.695L440.533 598.953C438.77 590.387 441.857 581.545 448.569 575.939L560.382 482.526C566.884 477.094 575.767 475.55 583.694 478.421L584.458 478.713L777.492 556.216C782.277 558.137 786.306 561.563 788.972 565.976L912.129 769.856C915.438 775.334 916.396 781.916 914.786 788.109L873.022 948.834Z" stroke="#5A83ED" stroke-width="2.5"/>
<path opacity="0.231884" d="M895 934.787C892.952 944.697 884.848 952.221 874.813 953.53L711.511 974.829C705.154 975.658 698.732 973.883 693.704 969.906L508.948 823.754C504.89 820.543 501.991 816.095 500.693 811.086L449.037 611.78C446.847 603.329 449.47 594.357 455.867 588.417L561.913 489.955C568.311 484.014 577.452 482.063 585.718 484.873L780.651 551.146C785.551 552.812 789.772 556.033 792.673 560.317L924.742 755.389C928.336 760.698 929.631 767.233 928.333 773.511L895 934.787Z" stroke="#5A83ED" stroke-width="2.5"/>
<path opacity="0.246377" d="M916.19 920.405C914.649 930.372 906.981 938.278 897.066 940.124L736.514 970.009C730.201 971.184 723.681 969.753 718.441 966.041L528.338 831.394C524.1 828.392 520.962 824.082 519.406 819.126L458.37 624.712C455.76 616.396 457.913 607.32 463.981 601.063L564.038 497.897C570.106 491.641 579.113 489.211 587.504 491.565L783.695 546.625C788.696 548.029 793.1 551.033 796.231 555.178L936.63 741.072C940.501 746.196 942.131 752.669 941.149 759.015L916.19 920.405Z" stroke="#5A83ED" stroke-width="2.5"/>
<path opacity="0.26087" d="M936.587 905.737C935.553 915.734 928.338 923.998 918.572 926.371L761.218 964.612C754.967 966.131 748.367 965.05 742.927 961.615L548.173 838.627C543.764 835.843 540.395 831.685 538.583 826.796L468.533 637.703C465.511 629.544 467.191 620.386 472.913 613.832L566.783 506.316C572.505 499.762 581.353 496.862 589.845 498.756L786.659 542.656C791.748 543.791 796.323 546.569 799.676 550.562L947.813 726.944C951.951 731.87 953.913 738.264 953.251 744.663L936.587 905.737Z" stroke="#5A83ED" stroke-width="2.5"/>
<path opacity="0.275362" d="M956.18 890.827C955.652 900.828 948.906 909.424 939.318 912.314L785.591 958.658C779.421 960.518 772.759 959.791 767.136 956.644L568.422 845.428C563.855 842.872 560.26 838.878 558.196 834.069L479.518 650.702C476.094 642.721 477.299 633.507 482.66 626.675L570.164 515.171C575.526 508.339 584.189 504.978 592.756 506.407L789.57 539.236C794.733 540.097 799.466 542.64 803.035 546.468L958.304 713.044C962.698 717.758 964.988 724.055 964.648 730.491L956.18 890.827Z" stroke="#5A83ED" stroke-width="2.5"/>
<path opacity="0.289855" d="M974.963 875.725C974.938 885.703 968.678 894.603 959.295 897.998L809.607 952.17C803.537 954.366 796.833 953.998 791.04 951.148L589.062 851.779C584.347 849.46 580.533 845.642 578.22 840.923L491.319 663.665C487.503 655.882 488.231 646.637 493.219 639.546L574.2 524.422C579.187 517.332 587.642 513.523 596.257 514.484L792.455 536.364C797.678 536.946 802.56 539.244 806.337 542.898L968.121 699.408C972.761 703.897 975.373 710.081 975.357 716.536L974.963 875.725Z" stroke="#5A83ED" stroke-width="2.5"/>
<path opacity="0.304348" d="M992.939 860.478C993.413 870.409 987.652 879.584 978.502 883.472L833.245 945.175C827.292 947.703 820.566 947.695 814.619 945.152L610.066 857.664C605.215 855.589 601.193 851.958 598.635 847.344L503.928 676.547C499.732 668.98 499.984 659.729 504.585 652.401L578.906 534.032C583.507 526.705 591.729 522.459 600.367 522.95L795.35 534.04C800.617 534.339 805.635 536.384 809.611 539.851L977.288 686.073C982.162 690.324 985.092 696.379 985.401 702.839L992.939 860.478Z" stroke="#5A83ED" stroke-width="2.5"/>
<path opacity="0.318841" d="M1010.1 845.131C1011.07 854.989 1005.82 864.413 996.931 868.776L856.48 937.698C850.663 940.552 843.933 940.905 837.849 938.677L631.405 863.063C626.432 861.241 622.209 857.809 619.41 853.312L517.333 689.303C512.769 681.971 512.546 672.74 516.749 665.195L584.293 543.96C588.496 536.415 596.464 531.747 605.1 531.769L798.28 532.256C803.577 532.269 808.718 534.053 812.885 537.324L985.825 673.074C990.921 677.075 994.162 682.985 994.796 689.433L1010.1 845.131Z" stroke="#5A83ED" stroke-width="2.5"/>
<path opacity="0.333333" d="M1026.46 829.733C1027.92 839.492 1023.19 849.136 1014.58 853.959L879.288 929.764C873.626 932.937 866.911 933.654 860.706 931.748L653.048 867.962C647.964 866.4 643.551 863.177 640.516 858.809L531.514 701.889C526.597 694.809 525.901 685.621 529.696 677.882L590.369 554.161C594.164 546.422 601.856 541.347 610.464 540.901L801.272 531.007C806.583 530.732 811.834 532.247 816.182 535.311L993.755 660.443C999.061 664.182 1002.61 669.93 1003.56 676.35L1026.46 829.733Z" stroke="#5A83ED" stroke-width="2.5"/>
<path opacity="0.347826" d="M1042.02 814.327C1043.96 823.964 1039.76 833.798 1031.46 839.063L901.654 921.402C896.162 924.885 889.482 925.964 883.172 924.387L674.968 872.348C669.786 871.053 665.192 868.048 661.928 863.82L546.459 714.26C541.202 707.451 540.038 698.331 543.416 690.42L597.145 564.597C600.524 556.685 607.917 551.218 616.471 550.307L804.355 530.284C809.666 529.718 815.013 530.96 819.532 533.807L1001.11 648.209C1006.61 651.676 1010.45 657.248 1011.73 663.624L1042.02 814.327Z" stroke="#5A83ED" stroke-width="2.5"/>
<path opacity="0.362319" d="M1056.79 798.959C1059.19 808.449 1055.53 818.444 1047.56 824.131L923.555 912.639C918.251 916.424 911.626 917.863 905.23 916.621L697.133 876.208C691.867 875.186 687.103 872.41 683.615 868.335L562.145 726.378C556.564 719.855 554.937 710.828 557.891 702.767L604.624 575.225C607.577 567.164 614.651 561.324 623.126 559.951L807.557 530.08C812.852 529.222 818.281 530.183 822.96 532.804L1007.9 636.405C1013.59 639.589 1017.72 644.97 1019.32 651.285L1056.79 798.959Z" stroke="#5A83ED" stroke-width="2.5"/>
<path opacity="0.376812" d="M1070.77 783.674C1073.64 792.993 1070.52 803.12 1062.9 809.209L944.977 903.506C939.878 907.582 933.327 909.381 926.862 908.479L719.513 879.535C714.177 878.79 709.254 876.254 705.55 872.342L578.553 738.204C572.663 731.983 570.581 723.071 573.103 714.883L612.809 586.008C615.331 577.82 622.068 571.625 630.438 569.797L810.904 530.384C816.167 529.234 821.664 529.909 826.494 532.296L1014.18 625.058C1020.03 627.951 1024.44 633.124 1026.36 639.363L1070.77 783.674Z" stroke="#5A83ED" stroke-width="2.5"/>
<path opacity="0.391304" d="M1083.93 768.62C1087.25 777.747 1084.68 787.974 1077.43 794.444L965.852 894.136C960.974 898.494 954.515 900.648 947.998 900.089L742.023 882.425C736.631 881.963 731.56 879.673 727.647 875.935L595.605 749.803C589.423 743.898 586.891 735.126 588.977 726.835L621.644 597.006C623.73 588.715 630.113 582.185 638.354 579.909L814.367 531.288C819.583 529.848 825.134 530.231 830.102 532.376L1019.91 614.298C1025.91 616.89 1030.58 621.844 1032.82 627.991L1083.93 768.62Z" stroke="#5A83ED" stroke-width="2.5"/>
<path opacity="0.405797" d="M1096.45 753.521C1100.2 762.433 1098.18 772.732 1091.33 779.559L986.325 884.244C981.685 888.871 975.338 891.375 968.788 891.163L764.791 884.554C759.359 884.378 754.151 882.344 750.037 878.792L613.433 760.823C606.976 755.247 604.005 746.637 605.651 738.266L631.291 607.865C632.937 599.494 638.945 592.649 647.032 589.933L818.132 532.464C823.284 530.733 828.875 530.822 833.969 532.716L1025.28 603.832C1031.43 606.115 1036.35 610.836 1038.9 616.875L1096.45 753.521Z" stroke="#5A83ED" stroke-width="2.5"/>
<path opacity="0.449275" d="M1129.51 709.942C1134.48 718.087 1134.1 728.42 1128.53 736.174L1044.44 853.325C1040.6 858.681 1034.7 862.198 1028.16 863.034L833.536 887.929C828.069 888.628 822.529 887.404 817.865 884.467L670.499 791.655L670.498 791.655C663.328 787.139 659.108 779.146 659.422 770.678L664.238 640.793C664.552 632.326 669.354 624.667 676.838 620.694L830.673 539.05C835.541 536.466 841.157 535.657 846.557 536.759L1038.81 575.997C1045.27 577.315 1050.89 581.26 1054.32 586.885L1129.51 709.942Z" stroke="#5A83ED" stroke-width="2.5"/>
<path opacity="0.42029" d="M1108.17 738.735C1112.35 747.412 1110.87 757.752 1104.44 764.913L1006.23 874.177C1001.84 879.06 995.621 881.909 989.057 882.046L787.625 886.236C782.166 886.349 776.835 884.578 772.529 881.221L631.848 771.546C625.135 766.313 621.737 757.886 622.94 749.459L641.581 618.861C642.784 610.435 648.405 603.295 656.314 600.149L822.061 534.213C827.134 532.195 832.748 531.986 837.957 533.622L1030.17 594C1036.44 595.968 1041.61 600.442 1044.45 606.358L1108.17 738.735Z" stroke="#5A83ED" stroke-width="2.5"/>
<path opacity="0.5" d="M1119.19 724.197C1123.77 732.617 1122.84 742.968 1116.83 750.439L1025.6 863.86C1021.48 868.987 1015.41 872.174 1008.85 872.66L810.551 887.36C805.081 887.766 799.638 886.266 795.149 883.114L650.882 781.833C643.931 776.954 640.115 768.733 640.874 760.274L652.568 629.85C653.326 621.392 658.543 613.981 666.251 610.416L826.234 536.414C831.213 534.112 836.835 533.603 842.146 534.975L1034.67 584.716C1041.04 586.362 1046.44 590.577 1049.59 596.355L1119.19 724.197Z" stroke="#5A83ED" stroke-width="2.5"/>
<path opacity="0.463768" d="M1139.16 696.008C1144.51 703.859 1144.67 714.144 1139.56 722.155L1062.75 842.603C1059.19 848.172 1053.48 852.011 1046.98 853.196L856.545 887.94C851.097 888.934 845.474 887.993 840.646 885.28L690.664 800.982C683.295 796.841 678.682 789.094 678.553 780.642L676.58 651.653C676.45 643.201 680.824 635.317 688.063 630.952L835.396 542.105C840.138 539.246 845.731 538.133 851.206 538.96L1042.62 567.861C1049.15 568.847 1054.98 572.509 1058.7 577.967L1139.16 696.008Z" stroke="#5A83ED" stroke-width="2.5"/>
<path opacity="0.478261" d="M1148.17 682.429C1153.88 689.969 1154.57 700.177 1149.93 708.418L1080.5 831.724C1077.25 837.492 1071.75 841.643 1065.31 843.176L879.552 887.398C874.138 888.687 868.444 888.034 863.463 885.553L711.348 809.789C703.799 806.029 698.81 798.549 698.24 790.136L689.584 662.395C689.014 653.981 692.949 645.896 699.921 641.152L840.425 545.559C845.026 542.429 850.58 541.014 856.117 541.56L1046.14 560.32C1052.73 560.97 1058.75 564.34 1062.74 569.617L1148.17 682.429Z" stroke="#5A83ED" stroke-width="2.5"/>
<path opacity="0.492754" d="M1156.56 669.236C1162.61 676.448 1163.83 686.552 1159.67 694.996L1097.71 820.719C1094.78 826.669 1089.49 831.122 1083.13 832.999L902.524 886.306C897.16 887.889 891.409 887.529 886.285 885.288L732.512 818.049C724.805 814.679 719.455 807.483 718.448 799.132L703.234 672.979C702.227 664.628 705.713 656.367 712.398 651.261L845.777 549.392C850.221 545.997 855.722 544.28 861.308 544.542L1049.41 553.384C1056.04 553.695 1062.23 556.763 1066.49 561.846L1156.56 669.236Z" stroke="#5A83ED" stroke-width="2.5"/>
<path opacity="0.507246" d="M1164.36 656.461C1170.73 663.33 1172.47 673.301 1168.8 681.919L1114.38 809.62C1111.77 815.735 1106.72 820.478 1100.45 822.696L925.427 884.672C920.129 886.548 914.336 886.483 909.08 884.491L754.119 825.742C746.274 822.768 740.58 815.875 739.14 807.609L717.511 683.377C716.072 675.111 719.101 666.699 725.48 661.248L851.468 553.584C855.741 549.932 861.171 547.915 866.791 547.89L1052.46 547.064C1059.11 547.034 1065.47 549.792 1069.99 554.667L1164.36 656.461Z" stroke="#5A83ED" stroke-width="2.5"/>
<path opacity="0.521739" d="M1171.61 644.131C1178.28 650.644 1180.53 660.455 1177.35 669.219L1130.49 798.457C1128.22 804.72 1123.43 809.741 1117.27 812.296L948.236 882.5C943.018 884.667 937.199 884.903 931.823 883.166L776.134 832.849C768.171 830.276 762.15 823.701 760.285 815.543L732.398 693.554C730.534 685.396 733.1 676.858 739.154 671.08L857.516 558.115C861.604 554.214 866.947 551.898 872.588 551.583L1055.34 541.368C1061.99 540.996 1068.49 543.435 1073.26 548.089L1171.61 644.131Z" stroke="#5A83ED" stroke-width="2.5"/>
</svg>
