<svg width="707" height="1294" viewBox="0 0 707 1294" fill="none" xmlns="http://www.w3.org/2000/svg">
<path opacity="0.0144928" d="M211.034 207.369C219.721 201.322 231.361 201.753 239.577 208.427L383.54 325.373C388.399 329.319 391.502 335.025 392.177 341.248L421.783 614.399C422.313 619.293 421.31 624.231 418.912 628.53L303.071 836.152C298.723 843.947 290.371 848.645 281.452 848.314L121.886 842.398C112.967 842.067 104.985 836.763 101.226 828.668L1.08053 613.038C-0.993019 608.573 -1.62878 603.575 -0.737347 598.733L49.0162 328.524C50.1497 322.368 53.6681 316.909 58.8056 313.332L211.034 207.369Z" stroke="#5A83ED" stroke-width="2.5"/>
<path opacity="0.0289855" d="M180.663 212.256C189.01 205.793 200.621 205.616 209.162 211.82L358.095 320.011C363.167 323.696 366.576 329.236 367.58 335.424L411.153 604.057C411.944 608.931 411.195 613.93 409.012 618.359L304.85 829.71C300.909 837.705 292.823 842.821 283.91 842.957L125.258 845.385C116.345 845.521 108.105 840.655 103.922 832.784L-6.65764 624.719C-8.97478 620.359 -9.87509 615.385 -9.23401 610.489L26.1004 340.649C26.9144 334.433 30.1528 328.791 35.1094 324.953L180.663 212.256Z" stroke="#5A83ED" stroke-width="2.5"/>
<path opacity="0.0434783" d="M150.657 218.032C158.643 211.173 170.193 210.39 179.032 216.109L332.416 315.351C337.687 318.761 341.393 324.12 342.724 330.255L399.873 593.663C400.923 598.503 400.434 603.55 398.473 608.098L306.06 822.529C302.536 830.705 294.737 836.224 285.855 836.826L128.547 847.485C119.665 848.087 111.192 843.671 106.598 836.045L-13.8993 636.042C-16.455 631.8 -17.6207 626.865 -17.2332 621.927L3.85866 353.218C4.34993 346.959 7.29972 341.149 12.0623 337.059L150.657 218.032Z" stroke="#5A83ED" stroke-width="2.5"/>
<path opacity="0.057971" d="M121.06 224.668C128.668 217.432 140.124 216.051 149.234 221.27L306.543 311.395C311.998 314.521 315.993 319.682 317.649 325.748L387.946 583.253C389.255 588.045 389.027 593.127 387.296 597.784L306.667 814.652C303.568 822.985 296.075 828.889 287.249 829.954L131.709 848.712C122.882 849.776 114.2 845.822 109.21 838.465L-20.6652 646.983C-23.4538 642.872 -24.8832 637.989 -24.7518 633.023L-17.688 366.189C-17.5215 359.904 -14.8687 353.94 -10.3126 349.607L121.06 224.668Z" stroke="#5A83ED" stroke-width="2.5"/>
<path opacity="0.0724638" d="M91.9156 232.134C99.1269 224.543 110.457 222.571 119.81 227.277L280.514 308.15C286.139 310.981 290.41 315.93 292.387 321.908L375.373 572.862C376.938 577.593 376.975 582.697 375.478 587.451L306.634 806.115C303.968 814.584 296.8 820.857 288.054 822.38L134.696 849.081C125.949 850.604 117.083 847.121 111.712 840.052L-26.9823 657.522C-29.9974 653.554 -31.688 648.738 -31.8145 643.756L-38.5248 379.522C-38.6846 373.227 -36.3378 367.126 -32.0005 362.561L91.9156 232.134Z" stroke="#5A83ED" stroke-width="2.5"/>
<path opacity="0.0869565" d="M63.2617 240.395C70.0599 232.472 81.2349 229.917 90.8003 234.1L254.366 305.616C260.144 308.143 264.682 312.865 266.976 318.74L362.159 562.525C363.977 567.182 364.28 572.294 363.023 577.133L305.931 796.96C303.703 805.542 296.879 812.167 288.236 814.142L137.461 848.61C128.818 850.586 119.793 847.583 114.058 840.823L-32.8767 667.636C-36.111 663.824 -38.0599 659.087 -38.4457 654.103L-58.6385 393.175C-59.1251 386.887 -57.091 380.663 -52.9841 375.876L63.2617 240.395Z" stroke="#5A83ED" stroke-width="2.5"/>
<path opacity="0.101449" d="M35.14 249.418C41.5101 241.185 52.4999 238.059 62.2495 241.708L228.14 303.793C234.056 306.007 238.847 310.487 241.452 316.242L348.312 552.277C350.381 556.846 350.949 561.953 349.937 566.865L304.531 787.231C302.745 795.902 296.282 802.86 287.767 805.282L139.963 847.32C131.448 849.742 122.292 847.226 116.209 840.793L-38.3707 677.306C-41.8165 673.662 -44.0206 669.02 -44.6661 664.046L-78.016 407.103C-78.8291 400.839 -77.1132 394.508 -73.2479 389.512L35.14 249.418Z" stroke="#5A83ED" stroke-width="2.5"/>
<path opacity="0.115942" d="M7.5898 259.165C13.5177 250.645 24.2915 246.961 34.1948 250.068L201.876 302.678C207.913 304.572 212.944 308.796 215.854 314.413L333.843 542.151C336.158 546.619 336.994 551.707 336.23 556.681L302.409 776.97C301.067 785.708 294.983 792.978 286.618 795.839L142.163 845.231C133.797 848.091 124.535 846.068 118.124 839.98L-43.4899 686.515C-47.1388 683.05 -49.5933 678.515 -50.4987 673.565L-96.6451 421.263C-97.7832 415.039 -96.3919 408.62 -92.779 403.426L7.5898 259.165Z" stroke="#5A83ED" stroke-width="2.5"/>
<path opacity="0.130435" d="M-19.3576 269.6C-13.8846 260.817 -3.35391 256.589 6.67322 259.148L175.611 302.267C181.751 303.834 187.01 307.789 190.219 313.254L318.762 532.182C321.318 536.536 322.42 541.591 321.908 546.614L299.541 766.224C298.647 775.006 292.955 782.568 284.763 785.857L144.017 842.37C135.825 845.659 126.484 844.134 119.764 838.408L-48.2641 695.246C-52.1069 691.972 -54.8058 687.558 -55.9701 682.645L-114.521 435.613C-115.982 429.447 -114.919 422.953 -111.568 417.575L-19.3576 269.6Z" stroke="#5A83ED" stroke-width="2.5"/>
<path opacity="0.144928" d="M-45.6681 280.68C-40.6614 271.659 -30.403 266.902 -20.2829 268.909L149.384 302.551C155.609 303.786 161.081 307.461 164.58 312.756L303.082 522.399C305.874 526.626 307.242 531.635 306.985 536.694L295.909 755.036C295.463 763.839 290.177 771.671 282.181 775.379L145.489 838.761C137.492 842.469 128.099 841.443 121.091 836.097L-52.7174 703.484C-56.7447 700.411 -59.6848 696.131 -61.1067 691.269L-131.637 450.108C-133.418 444.016 -132.688 437.465 -129.608 431.916L-45.6681 280.68Z" stroke="#5A83ED" stroke-width="2.5"/>
<path opacity="0.173913" d="M-96.2737 304.609C-92.2278 295.188 -82.592 289.426 -72.3778 290.321L97.1758 305.173C103.519 305.729 109.373 308.809 113.425 313.721L269.977 503.525C273.222 507.46 275.114 512.335 275.373 517.429L286.272 731.529C286.719 740.305 282.283 748.61 274.741 753.12L147.133 829.421C139.59 833.931 130.175 833.908 122.655 829.361L-60.7908 718.432C-65.1554 715.793 -68.5542 711.819 -70.4845 707.097L-163.595 479.36C-166.005 473.466 -165.947 466.851 -163.434 461L-96.2737 304.609Z" stroke="#5A83ED" stroke-width="2.5"/>
<path opacity="0.188406" d="M-120.516 317.375C-116.962 307.792 -107.675 301.557 -97.4604 301.896L71.2684 307.491C77.6429 307.703 83.6648 310.469 87.9778 315.168L252.586 494.496C256.047 498.267 258.197 503.055 258.717 508.147L280.243 719.307C281.132 728.035 277.138 736.544 269.854 741.434L147.239 823.755C139.955 828.645 130.568 829.121 122.826 824.993L-64.4662 725.124C-68.9827 722.716 -72.6005 718.913 -74.7803 714.282L-178.438 494.033C-181.154 488.262 -181.435 481.641 -179.217 475.661L-120.516 317.375Z" stroke="#5A83ED" stroke-width="2.5"/>
<path opacity="0.202899" d="M-144.018 330.613C-140.962 320.895 -132.048 314.208 -121.863 313.993L45.5402 310.459C51.9276 310.325 58.1001 312.769 62.6635 317.241L234.666 485.773C238.335 489.368 240.74 494.057 241.519 499.134L273.397 706.835C274.726 715.493 271.18 724.18 264.173 729.436L146.83 817.465C139.823 822.721 130.492 823.694 122.551 819.996L-67.9369 731.282C-72.5938 729.113 -76.4216 725.492 -78.8467 720.964L-192.527 508.68C-195.543 503.048 -196.163 496.437 -194.247 490.343L-144.018 330.613Z" stroke="#5A83ED" stroke-width="2.5"/>
<path opacity="0.217391" d="M-166.766 344.278C-164.212 334.45 -155.693 327.333 -145.568 326.568L20.0229 314.062C26.4042 313.58 32.7103 315.694 37.5121 319.924L216.233 477.385C220.101 480.793 222.755 485.368 223.794 490.418L265.723 694.16C267.485 702.725 264.398 711.567 257.687 717.174L145.874 810.587C139.372 816.018 130.489 817.562 122.562 814.691L121.798 814.399L-71.2363 736.896C-76.0207 734.975 -80.0501 731.549 -82.7159 727.136L-205.873 523.256C-209.182 517.778 -210.14 511.197 -208.531 505.003L-166.766 344.278Z" stroke="#5A83ED" stroke-width="2.5"/>
<path opacity="0.231884" d="M-188.744 358.325C-186.696 348.415 -178.592 340.891 -168.557 339.582L-5.25529 318.283C1.10138 317.454 7.52357 319.229 12.5512 323.206L197.308 469.359C201.366 472.569 204.264 477.018 205.563 482.027L257.219 681.332C259.409 689.783 256.786 698.755 250.388 704.695L144.343 803.157C137.945 809.098 128.804 811.049 120.538 808.239L-74.3956 741.966C-79.2949 740.3 -83.516 737.08 -86.4171 732.795L-218.486 537.723C-222.08 532.415 -223.375 525.879 -222.078 519.601L-188.744 358.325Z" stroke="#5A83ED" stroke-width="2.5"/>
<path opacity="0.246377" d="M-209.935 372.707C-208.393 362.74 -200.725 354.834 -190.81 352.988L-30.2584 323.103C-23.9453 321.928 -17.4253 323.36 -12.1851 327.071L177.917 461.718C182.156 464.72 185.294 469.03 186.849 473.986L247.885 668.401C250.496 676.716 248.342 685.793 242.275 692.049L142.217 795.215C136.15 801.472 127.143 803.902 118.752 801.547L-77.4395 746.487C-82.4406 745.084 -86.8447 742.079 -89.9752 737.934L-230.375 552.041C-234.245 546.916 -235.875 540.443 -234.894 534.097L-209.935 372.707Z" stroke="#5A83ED" stroke-width="2.5"/>
<path opacity="0.26087" d="M-230.331 387.375C-229.297 377.378 -222.082 369.115 -212.316 366.741L-54.9619 328.5C-48.711 326.981 -42.1108 328.063 -36.6717 331.497L158.083 454.486C162.491 457.27 165.861 461.427 167.672 466.317L237.723 655.41C240.745 663.568 239.065 672.727 233.343 679.281L139.473 786.796C133.751 793.35 124.903 796.25 116.411 794.356L-80.4038 750.456C-85.4928 749.321 -90.0672 746.543 -93.4205 742.55L-241.558 566.168C-245.695 561.242 -247.657 554.848 -246.995 548.45L-230.331 387.375Z" stroke="#5A83ED" stroke-width="2.5"/>
<path opacity="0.275362" d="M-249.924 402.285C-249.396 392.284 -242.651 383.689 -233.062 380.798L-79.3352 334.454C-73.1652 332.594 -66.5037 333.321 -60.8803 336.468L137.833 447.684C142.4 450.241 145.996 454.234 148.059 459.044L226.738 642.41C230.162 650.391 228.957 659.605 223.595 666.437L136.091 777.941C130.73 784.773 122.066 788.134 113.5 786.705L-83.3146 753.876C-88.4772 753.015 -93.2107 750.473 -96.7795 746.644L-252.049 580.068C-256.443 575.355 -258.733 569.057 -258.393 562.622L-249.924 402.285Z" stroke="#5A83ED" stroke-width="2.5"/>
<path opacity="0.289855" d="M-268.707 417.388C-268.682 407.409 -262.422 398.51 -253.039 395.114L-103.351 340.943C-97.2808 338.746 -90.5773 339.114 -84.7847 341.964L117.194 441.333C121.909 443.653 125.722 447.471 128.035 452.189L214.937 629.447C218.753 637.231 218.025 646.476 213.037 653.566L132.056 768.69C127.069 775.78 118.614 779.589 109.999 778.628L-86.1995 756.748C-91.4219 756.166 -96.3045 753.868 -100.081 750.214L-261.865 593.704C-266.505 589.215 -269.118 583.032 -269.102 576.576L-268.707 417.388Z" stroke="#5A83ED" stroke-width="2.5"/>
<path opacity="0.304348" d="M-286.683 432.634C-287.158 422.704 -281.397 413.528 -272.246 409.641L-126.989 347.938C-121.037 345.409 -114.31 345.417 -108.364 347.96L96.1899 435.449C101.04 437.523 105.062 441.154 107.621 445.768L202.328 616.565C206.524 624.132 206.272 633.383 201.671 640.711L127.35 759.08C122.749 766.408 114.527 770.653 105.888 770.162L-89.0944 759.073C-94.3616 758.773 -99.3791 756.728 -103.355 753.261L-271.032 607.039C-275.906 602.789 -278.836 596.734 -279.145 590.274L-286.683 432.634Z" stroke="#5A83ED" stroke-width="2.5"/>
<path opacity="0.318841" d="M-303.849 447.981C-304.818 438.124 -299.568 428.699 -290.675 424.336L-150.224 355.414C-144.408 352.56 -137.677 352.207 -131.593 354.435L74.8503 430.049C79.8242 431.871 84.0464 435.304 86.8455 439.801L188.923 603.809C193.487 611.141 193.71 620.373 189.507 627.917L121.963 749.153C117.759 756.697 109.792 761.365 101.156 761.344L-92.0247 760.857C-97.3217 760.843 -102.463 759.059 -106.629 755.789L-279.569 620.038C-284.666 616.037 -287.907 610.128 -288.541 603.679L-303.849 447.981Z" stroke="#5A83ED" stroke-width="2.5"/>
<path opacity="0.333333" d="M-320.207 463.379C-321.664 453.62 -316.935 443.976 -308.326 439.153L-173.033 363.348C-167.37 360.176 -160.655 359.459 -154.45 361.365L53.2075 425.15C58.2919 426.712 62.7052 429.935 65.7397 434.303L174.741 591.224C179.659 598.303 180.355 607.491 176.56 615.231L115.887 738.951C112.091 746.69 104.4 751.765 95.792 752.212L-95.0158 762.105C-100.328 762.381 -105.578 760.865 -109.926 757.802L-287.5 632.67C-292.806 628.93 -296.349 623.182 -297.308 616.762L-320.207 463.379Z" stroke="#5A83ED" stroke-width="2.5"/>
<path opacity="0.347826" d="M-335.766 478.785C-337.703 469.149 -333.504 459.314 -325.203 454.049L-195.398 371.71C-189.906 368.227 -183.226 367.149 -176.917 368.725L31.2878 420.764C36.4695 422.06 41.0633 425.064 44.3273 429.292L159.796 578.852C165.054 585.661 166.218 594.781 162.839 602.693L109.11 728.515C105.732 736.427 98.3389 741.894 89.7846 742.806L-98.0998 762.828C-103.411 763.394 -108.758 762.153 -113.277 759.305L-294.851 644.903C-300.353 641.436 -304.193 635.864 -305.475 629.488L-335.766 478.785Z" stroke="#5A83ED" stroke-width="2.5"/>
<path opacity="0.362319" d="M-350.531 494.153C-352.938 484.663 -349.276 474.669 -341.307 468.981L-217.299 380.474C-211.996 376.689 -205.37 375.249 -198.974 376.491L9.12253 416.904C14.3882 417.927 19.1528 420.702 22.6403 424.777L144.111 566.734C149.692 573.257 151.319 582.285 148.365 590.345L101.632 717.887C98.6783 725.948 91.6043 731.788 83.1295 733.161L-101.301 763.032C-106.596 763.89 -112.025 762.929 -116.705 760.308L-301.649 656.707C-307.334 653.523 -311.46 648.143 -313.063 641.827L-350.531 494.153Z" stroke="#5A83ED" stroke-width="2.5"/>
<path opacity="0.376812" d="M-364.515 509.438C-367.383 500.119 -364.264 489.993 -356.648 483.903L-238.721 389.607C-233.623 385.53 -227.071 383.731 -220.606 384.634L-13.2569 413.577C-7.92142 414.322 -2.99786 416.859 0.705924 420.771L127.702 554.908C133.593 561.129 135.675 570.041 133.153 578.229L93.4472 707.105C90.9246 715.293 84.1879 721.487 75.8176 723.315L-104.648 762.729C-109.911 763.878 -115.408 763.203 -120.238 760.816L-307.925 668.054C-313.777 665.162 -318.18 659.988 -320.101 653.749L-364.515 509.438Z" stroke="#5A83ED" stroke-width="2.5"/>
<path opacity="0.391304" d="M-377.677 524.492C-380.994 515.365 -378.421 505.138 -371.179 498.668L-259.596 398.976C-254.719 394.618 -248.259 392.465 -241.743 393.024L-35.767 410.687C-30.3757 411.149 -25.3044 413.439 -21.3917 417.177L110.651 543.309C116.833 549.214 119.365 557.987 117.279 566.278L84.6115 696.106C82.5253 704.397 76.1429 710.927 67.9021 713.204L-108.112 761.824C-113.327 763.264 -118.878 762.881 -123.846 760.737L-313.653 678.815C-319.658 676.223 -324.329 671.269 -326.564 665.121L-377.677 524.492Z" stroke="#5A83ED" stroke-width="2.5"/>
<path opacity="0.405797" d="M-390.192 539.591C-393.946 530.679 -391.921 520.381 -385.073 513.553L-280.07 408.868C-275.429 404.241 -269.082 401.738 -262.532 401.95L-58.5356 408.558C-53.1032 408.734 -47.8949 410.768 -43.7813 414.321L92.8228 532.289C99.2794 537.865 102.25 546.475 100.605 554.846L74.9651 685.248C73.3192 693.618 67.3102 700.463 59.2235 703.18L-111.876 760.649C-117.028 762.379 -122.619 762.29 -127.714 760.396L-319.027 689.28C-325.17 686.997 -330.096 682.277 -332.64 676.237L-390.192 539.591Z" stroke="#5A83ED" stroke-width="2.5"/>
<path opacity="0.449275" d="M-423.251 583.17C-428.227 575.026 -427.844 564.692 -422.279 556.938L-338.189 439.787C-334.344 434.431 -328.447 430.915 -321.907 430.078L-127.28 405.183C-121.813 404.484 -116.273 405.708 -111.61 408.645L35.7567 501.457L35.7577 501.457C42.9273 505.973 47.1477 513.967 46.8338 522.434L42.0177 652.319C41.7037 660.787 36.9022 668.446 29.4176 672.418L-124.417 754.062C-129.286 756.646 -134.901 757.455 -140.301 756.353L-332.551 717.115C-339.01 715.797 -344.631 711.853 -348.068 706.227L-423.251 583.17Z" stroke="#5A83ED" stroke-width="2.5"/>
<path opacity="0.42029" d="M-401.918 554.377C-406.094 545.701 -404.618 535.36 -398.181 528.199L-299.97 418.935C-295.581 414.052 -289.366 411.203 -282.801 411.067L-81.3694 406.877C-75.9105 406.763 -70.5792 408.534 -66.2732 411.891L74.4072 521.566C81.1202 526.8 84.5188 535.226 83.3159 543.653L64.6743 674.251C63.4715 682.678 57.8511 689.817 49.9419 692.963L-115.805 758.899C-120.879 760.918 -126.492 761.126 -131.701 759.49L-323.917 699.112C-330.181 697.144 -335.351 692.67 -338.198 686.754L-401.918 554.377Z" stroke="#5A83ED" stroke-width="2.5"/>
<path opacity="0.5" d="M-412.93 568.916C-417.515 560.495 -416.586 550.144 -410.578 542.673L-319.347 429.252C-315.223 424.125 -309.158 420.938 -302.597 420.452L-104.295 405.752C-98.8249 405.346 -93.3825 406.846 -88.8931 409.998L55.3739 511.279C62.3247 516.159 66.1406 524.379 65.3822 532.838L53.6882 663.262C52.9297 671.721 47.7124 679.131 40.0043 682.697L-119.979 756.698C-124.957 759.001 -130.58 759.509 -135.891 758.137L-328.414 708.396C-334.784 706.75 -340.186 702.535 -343.332 696.757L-412.93 568.916Z" stroke="#5A83ED" stroke-width="2.5"/>
<path opacity="0.463768" d="M-432.901 597.104C-438.253 589.253 -438.41 578.968 -433.301 570.957L-356.489 450.51C-352.937 444.94 -347.225 441.101 -340.727 439.916L-150.289 405.172C-144.842 404.178 -139.218 405.119 -134.39 407.832L15.5914 492.13C22.9604 496.272 27.5734 504.018 27.7027 512.47L29.6761 641.459C29.8053 649.911 25.4314 657.795 18.1926 662.161L-129.14 751.007C-133.883 753.867 -139.475 754.979 -144.951 754.153L-336.361 725.252C-342.893 724.265 -348.72 720.603 -352.441 715.145L-432.901 597.104Z" stroke="#5A83ED" stroke-width="2.5"/>
<path opacity="0.478261" d="M-441.911 610.683C-447.62 603.144 -448.311 592.935 -443.672 584.694L-374.247 461.388C-370.999 455.62 -365.491 451.469 -359.051 449.936L-173.296 405.714C-167.882 404.425 -162.189 405.078 -157.208 407.559L-5.09189 483.323C2.45637 487.083 7.4456 494.563 8.01578 502.976L16.6716 630.718C17.2418 639.131 13.3072 647.217 6.33509 651.96L-134.169 747.553C-138.77 750.683 -144.324 752.098 -149.862 751.552L-339.885 732.793C-346.472 732.142 -352.49 728.772 -356.486 723.495L-441.911 610.683Z" stroke="#5A83ED" stroke-width="2.5"/>
<path opacity="0.492754" d="M-450.304 623.876C-456.352 616.664 -457.571 606.56 -453.41 598.117L-391.458 472.393C-388.526 466.443 -383.239 461.991 -376.877 460.113L-196.268 406.806C-190.904 405.223 -185.153 405.584 -180.029 407.824L-26.2562 475.064C-18.549 478.434 -13.1991 485.629 -12.1919 493.981L3.0217 620.133C4.0287 628.484 0.542861 636.745 -6.14214 641.851L-139.521 743.721C-143.966 747.115 -149.466 748.833 -155.052 748.57L-343.156 739.729C-349.782 739.417 -355.976 736.349 -360.239 731.267L-450.304 623.876Z" stroke="#5A83ED" stroke-width="2.5"/>
<path opacity="0.507246" d="M-458.109 636.651C-464.477 629.782 -466.213 619.811 -462.541 611.193L-408.121 483.493C-405.515 477.378 -400.464 472.635 -394.198 470.416L-219.171 408.44C-213.873 406.564 -208.08 406.629 -202.825 408.622L-47.8634 467.37C-40.0179 470.345 -34.3239 477.237 -32.8846 485.503L-11.2552 609.735C-9.81611 618.001 -12.8454 626.414 -19.224 631.865L-145.212 739.528C-149.485 743.18 -154.915 745.198 -160.536 745.223L-346.209 746.049C-352.856 746.078 -359.213 743.32 -363.732 738.446L-458.109 636.651Z" stroke="#5A83ED" stroke-width="2.5"/>
</svg>
