<svg width="1920" height="667" viewBox="0 0 1920 667" fill="none" xmlns="http://www.w3.org/2000/svg">
<path d="M1.25 17H257.25V433H811.25H1443.25V665H1919.25" stroke="#2C6BF1" stroke-opacity="0.5" stroke-width="2.5" stroke-linecap="round" stroke-dasharray="15 15"/>
<path d="M159.996 31.2526L184.761 20.2088C186.746 19.3233 186.746 16.6767 184.761 15.7912L159.996 4.74744C157.752 3.74684 155.425 5.96871 156.536 8.05034L161.265 16.9059C161.632 17.5947 161.632 18.4053 161.265 19.0941L156.536 27.9497C155.425 30.0313 157.752 32.2532 159.996 31.2526Z" fill="#2C6BF1"/>
<path fill-rule="evenodd" clip-rule="evenodd" d="M1441.75 387C1433.74 387 1427.25 394.205 1427.25 402.3C1427.25 410.332 1431.88 419.062 1439.1 422.414C1440.78 423.195 1442.72 423.195 1444.4 422.414C1451.62 419.062 1456.25 410.332 1456.25 402.3C1456.25 394.205 1449.76 387 1441.75 387ZM1441.75 405C1443.75 405 1445.38 403.388 1445.38 401.4C1445.38 399.412 1443.75 397.8 1441.75 397.8C1439.75 397.8 1438.12 399.412 1438.12 401.4C1438.12 403.388 1439.75 405 1441.75 405Z" fill="#2C6BF1"/>
</svg>
