<svg width="1920" height="461" viewBox="0 0 1920 461" fill="none" xmlns="http://www.w3.org/2000/svg">
<path d="M-0.5 17H381V443H813V211H1445V443H1921" stroke="#2C6BF1" stroke-opacity="0.5" stroke-width="2.5" stroke-linecap="round" stroke-dasharray="15 15"/>
<path d="M1855.25 429.747L1830.49 440.791C1828.5 441.677 1828.5 444.323 1830.49 445.209L1855.25 456.253C1857.5 457.253 1859.82 455.031 1858.71 452.95L1853.99 444.094C1853.62 443.405 1853.62 442.595 1853.99 441.906L1858.71 433.05C1859.82 430.969 1857.5 428.747 1855.25 429.747Z" fill="#2C6BF1"/>
<path d="M309.254 4.74744L284.489 15.7912C282.504 16.6767 282.504 19.3233 284.489 20.2088L309.254 31.2526C311.498 32.2532 313.825 30.0313 312.714 27.9497L307.985 19.0941C307.618 18.4053 307.618 17.5947 307.985 16.9059L312.714 8.05034C313.825 5.96871 311.498 3.74684 309.254 4.74744Z" fill="#2C6BF1"/>
</svg>
