<svg width="1920" height="445" viewBox="0 0 1920 445" fill="none" xmlns="http://www.w3.org/2000/svg">
<path d="M-1 443H286V17H718V249H1350V17H1764V345H1920" stroke="#2C6BF1" stroke-opacity="0.5" stroke-width="2.5" stroke-linecap="round" stroke-dasharray="15 15"/>
<path d="M299.253 259.254L288.209 234.489C287.323 232.504 284.677 232.504 283.791 234.489L272.747 259.254C271.747 261.498 273.969 263.825 276.05 262.714L284.906 257.985C285.595 257.618 286.405 257.618 287.094 257.985L295.95 262.714C298.031 263.825 300.253 261.498 299.253 259.254Z" fill="#2C6BF1"/>
<path d="M1688.75 31.2526L1713.51 20.2088C1715.5 19.3233 1715.5 16.6767 1713.51 15.7912L1688.75 4.74744C1686.5 3.74684 1684.18 5.96871 1685.29 8.05034L1690.01 16.9059C1690.38 17.5947 1690.38 18.4053 1690.01 19.0941L1685.29 27.9497C1684.18 30.0313 1686.5 32.2532 1688.75 31.2526Z" fill="#2C6BF1"/>
</svg>
