<svg width="1920" height="392" viewBox="0 0 1920 392" fill="none" xmlns="http://www.w3.org/2000/svg">
<path d="M0 1.25H262V233.25H894V1.25H1326L1360.5 390.25H1789V100.75H1919" stroke="#2C6BF1" stroke-opacity="0.5" stroke-width="2.5" stroke-linecap="round" stroke-dasharray="15 15"/>
<path d="M288.746 246.503L313.511 235.459C315.496 234.573 315.496 231.927 313.511 231.041L288.746 219.997C286.502 218.997 284.175 221.219 285.286 223.3L290.015 232.156C290.382 232.845 290.382 233.655 290.015 234.344L285.286 243.2C284.175 245.281 286.502 247.503 288.746 246.503Z" fill="#2C6BF1"/>
<path d="M1802.25 257.504L1791.21 232.739C1790.32 230.754 1787.68 230.754 1786.79 232.739L1775.75 257.504C1774.75 259.748 1776.97 262.075 1779.05 260.964L1787.91 256.235C1788.59 255.868 1789.41 255.868 1790.09 256.235L1798.95 260.964C1801.03 262.075 1803.25 259.748 1802.25 257.504Z" fill="#2C6BF1"/>
</svg>
